<svg width="23" height="25" viewBox="0 0 23 25" fill="none" xmlns="http://www.w3.org/2000/svg">
<path fill-rule="evenodd" clip-rule="evenodd" d="M13.9484 14.4655H20.8345C21.751 14.4655 22.5 15.2155 22.5 16.1308V22.6588C22.5 23.5751 21.7498 24.3243 20.8345 24.3243H13.9484C13.0323 24.3243 12.2833 23.5749 12.2833 22.6588V16.1308C12.2833 15.2157 13.0323 14.4655 13.9484 14.4655ZM5.55457 15.7103C5.22201 15.7103 4.94507 15.4093 4.94507 15.0454C4.94507 14.6732 5.21393 14.3803 5.55457 14.3803H8.75601C9.08857 14.3803 9.3657 14.6812 9.3657 15.0454C9.3657 15.4174 9.09646 15.7103 8.75601 15.7103H5.55457ZM20.0241 12.1576H18.6864V2.23555C18.6864 2.17223 18.6623 2.1168 18.6229 2.07716C18.5834 2.03771 18.5278 2.01384 18.4647 2.01384H2.05194C1.98862 2.01384 1.933 2.03771 1.89374 2.07716C1.85371 2.1168 1.83004 2.17204 1.83004 2.23555V20.7783C1.83004 20.8417 1.8539 20.8969 1.89336 20.9365C1.933 20.976 1.98843 20.9998 2.05155 20.9998H9.19307V22.3376C0.609698 22.3376 7.65692 22.3376 2.05944 22.3376C1.63181 22.3376 1.23613 22.1632 0.959191 21.8784C0.674169 21.5934 0.5 21.2056 0.5 20.7779V2.23555C0.5 1.80792 0.674169 1.41224 0.959384 1.13491C1.24421 0.84989 1.6322 0.67572 2.05963 0.67572H18.4725C18.9 0.67572 19.2961 0.84989 19.5732 1.13491C19.858 1.41993 20.0322 1.80792 20.0322 2.23555C20.032 9.89265 20.0241 0.453823 20.0241 12.1576ZM5.54668 7.04917C5.21412 7.04917 4.93718 6.74817 4.93718 6.38386C4.93718 6.01185 5.20642 5.71874 5.54668 5.71874H14.9618C15.2946 5.71874 15.5711 6.01974 15.5711 6.38367C15.5711 6.75587 15.3025 7.04897 14.9618 7.04897L5.54668 7.04917ZM5.54668 11.3797C5.21412 11.3797 4.93718 11.0787 4.93718 10.7148C4.93718 10.3426 5.20642 10.0497 5.54668 10.0497H14.9618C15.2946 10.0497 15.5711 10.3505 15.5711 10.7148C15.5711 11.0868 15.3025 11.3797 14.9618 11.3797H5.54668ZM15.3546 20.0414C14.9978 20.0414 14.7086 19.7522 14.7086 19.3956C14.7086 19.0389 14.998 18.7497 15.3546 18.7497H16.7451V17.3581C16.7451 17.0013 17.0345 16.7122 17.3912 16.7122C17.7476 16.7122 18.0368 17.0015 18.0368 17.3581V18.7497H19.4287C19.7851 18.7497 20.0743 19.0389 20.0743 19.3956C20.0743 19.7522 19.7849 20.0414 19.4287 20.0414H18.0378V21.4331C18.0378 21.7899 17.7484 22.0789 17.3921 22.0789C17.0353 22.0789 16.7461 21.7897 16.7461 21.4331V20.0414H15.3546Z" fill="black"/>
</svg>
