<svg width="24" height="24" viewBox="0 0 24 24" fill="none" xmlns="http://www.w3.org/2000/svg">
<path fill-rule="evenodd" clip-rule="evenodd" d="M12 0C18.627 0 24 5.37305 24 12C24 18.627 18.627 24 12 24C5.37305 24 0 18.627 0 12C0 5.37305 5.37305 0 12 0ZM10.2656 16.4062C9.91016 16.5254 9.54688 16.6348 9.19141 16.752C8.83594 16.8711 8.48047 16.9883 8.11719 17.1074C7.26953 17.3809 6.80664 17.5352 6.70508 17.5625C6.60547 17.5898 6.66797 17.1992 6.87891 16.3789L7.55273 13.8027L12.6328 8.52148L15.3379 11.125L10.2656 16.4062ZM15.3281 6.60938C15.2012 6.49023 15.0547 6.42773 14.8906 6.43555C14.7266 6.43555 14.5801 6.5 14.4629 6.62695L13.498 7.62891L16.2031 10.2422L17.1777 9.22266C17.2969 9.10352 17.3418 8.94922 17.3418 8.78516C17.3418 8.62109 17.2773 8.4668 17.1602 8.35742L15.3281 6.60938Z" fill="#1FB6FC"/>
</svg>
