<svg width="25" height="17" viewBox="0 0 25 17" fill="none" xmlns="http://www.w3.org/2000/svg">
<path d="M19.3422 2.11133C21.4331 3.49609 23.2342 5.50391 24.6003 7.94336L24.7333 8.18164L24.6003 8.41797C23.2342 10.8574 21.4312 12.8652 19.3422 14.25C17.3029 15.6016 14.9876 16.3633 12.5333 16.3633C10.079 16.3633 7.76375 15.6016 5.72644 14.252C3.63354 12.8652 1.83253 10.8574 0.466384 8.41797L0.333344 8.18164L0.466384 7.94336C1.83253 5.50391 3.63354 3.49609 5.72446 2.11133C7.76375 0.761719 10.079 0 12.5333 0C14.9876 0 17.301 0.761719 19.3422 2.11133ZM12.4043 4.33008L13.2144 4.40625C12.9265 4.83203 12.7557 5.34766 12.7557 5.9043C12.7557 7.36523 13.9193 8.54883 15.357 8.54883C15.8177 8.54883 16.2505 8.42773 16.6258 8.21289C16.6318 8.30469 16.6358 8.39648 16.6358 8.49023C16.6358 10.7891 14.7414 12.6523 12.4043 12.6523C10.0671 12.6523 8.1728 10.7891 8.1728 8.49023C8.1728 6.19336 10.0671 4.33008 12.4043 4.33008ZM21.9772 8.18164C20.8851 6.29492 19.4733 4.74414 17.849 3.66797C16.2505 2.60938 14.4436 2.01172 12.5333 2.01172C10.6251 2.01172 8.81814 2.60938 7.21967 3.66797C5.59539 4.74414 4.18357 6.29492 3.08946 8.18164C4.18159 10.0684 5.59539 11.6191 7.21967 12.6934C8.81814 13.752 10.6251 14.3496 12.5333 14.3496C14.4436 14.3496 16.2485 13.752 17.849 12.6934C19.4733 11.6191 20.8851 10.0684 21.9772 8.18164Z" fill="#1FB6FC"/>
</svg>
