<svg width="20" height="21" viewBox="0 0 20 21" fill="none" xmlns="http://www.w3.org/2000/svg">
<path fill-rule="evenodd" clip-rule="evenodd" d="M9.43726 0.60975C9.76828 0.352292 10.2318 0.352292 10.5628 0.60975L18.8128 7.02642C19.0361 7.20008 19.1667 7.46711 19.1667 7.74999V17.8333C19.1667 18.5627 18.877 19.2621 18.3613 19.7779C17.8455 20.2936 17.1461 20.5833 16.4167 20.5833H3.58337C2.85403 20.5833 2.15456 20.2936 1.63883 19.7779C1.12311 19.2621 0.833374 18.5627 0.833374 17.8333V7.74999C0.833374 7.46711 0.963974 7.20008 1.18726 7.02642L9.43726 0.60975ZM2.66671 8.19832V17.8333C2.66671 18.0764 2.76328 18.3096 2.93519 18.4815C3.1071 18.6534 3.34026 18.75 3.58337 18.75H16.4167C16.6598 18.75 16.893 18.6534 17.0649 18.4815C17.2368 18.3096 17.3334 18.0764 17.3334 17.8333V8.19832L10 2.49461L2.66671 8.19832Z" fill="black"/>
</svg>
