<svg width="22" height="23" viewBox="0 0 22 23" fill="none" xmlns="http://www.w3.org/2000/svg">
<path d="M17.5414 3.84879C17.4823 3.7897 17.4214 3.74709 17.3587 3.7206C17.3 3.69571 17.2315 3.68353 17.1529 3.68353C17.0739 3.68353 17.0039 3.69607 16.9445 3.72131C16.8829 3.74727 16.8234 3.78917 16.7665 3.847L16.7627 3.85075L15.6515 4.95863C15.485 5.12424 15.2277 5.14268 15.0409 5.01467C14.9102 4.93017 14.771 4.8487 14.6249 4.76975C14.47 4.68596 14.3182 4.61076 14.1699 4.54273C14.0154 4.47219 13.8577 4.40577 13.6971 4.34346C13.5515 4.28689 13.3893 4.22924 13.2124 4.17087C13.01 4.10409 12.8812 3.91575 12.8812 3.71325V2.00919C12.8812 1.92755 12.8683 1.85539 12.8427 1.79255C12.8171 1.73043 12.7781 1.6726 12.7242 1.61889C12.6718 1.56643 12.6148 1.52758 12.5525 1.50233C12.4899 1.47673 12.4175 1.46402 12.3357 1.46402H10.1971C10.1214 1.46402 10.0542 1.47619 9.99551 1.50054C9.93321 1.52615 9.87216 1.56804 9.81182 1.62641L9.81111 1.62694C9.75811 1.67994 9.71908 1.73633 9.69402 1.79631C9.66824 1.85772 9.65534 1.92862 9.65534 2.00919V3.56931C9.65534 3.80653 9.48401 4.00365 9.25842 4.04394C9.08708 4.08476 8.92882 4.12701 8.78469 4.17123C8.62678 4.21957 8.46798 4.27453 8.30881 4.33666C8.30093 4.3397 8.29306 4.34257 8.28518 4.34507C8.14607 4.39914 7.99944 4.46181 7.84547 4.53288C7.68899 4.60504 7.54325 4.67826 7.40826 4.75185C7.21794 4.85551 6.98842 4.81701 6.84161 4.67253L6.84143 4.67271L5.61073 3.45974C5.60697 3.45598 5.60321 3.45222 5.59945 3.44846V3.44864C5.547 3.39314 5.49185 3.3525 5.43402 3.32725C5.37852 3.30308 5.31282 3.29073 5.23619 3.29073C5.1601 3.29073 5.09206 3.30362 5.03227 3.32922C4.96674 3.35715 4.90408 3.40084 4.84392 3.45974L4.84356 3.4601L3.35058 4.95648L3.34968 4.95756L3.35058 4.95845C3.28935 5.01968 3.24602 5.08056 3.22042 5.14107C3.19553 5.19979 3.18318 5.26837 3.18318 5.34678C3.18318 5.42592 3.19571 5.49574 3.22095 5.55554C3.24691 5.61695 3.28863 5.67639 3.34664 5.73332L3.3504 5.73708L4.45827 6.84854C4.62388 7.01505 4.64232 7.27232 4.51431 7.45906C4.42981 7.58993 4.34835 7.72904 4.26957 7.87514C4.18578 8.03018 4.11059 8.18165 4.04255 8.33025C3.97183 8.48458 3.90541 8.64249 3.84293 8.80308C3.78635 8.94846 3.72888 9.11067 3.67051 9.28756C3.60373 9.49022 3.41521 9.61877 3.2129 9.61877V9.61895H1.50936C1.42737 9.61895 1.35539 9.63166 1.29255 9.65709C1.23061 9.68251 1.17331 9.72118 1.12103 9.77364L1.11907 9.77579C1.06661 9.82825 1.02776 9.88536 1.00233 9.9473C0.976731 10.0101 0.964199 10.0823 0.964199 10.1641V12.3029C0.964199 12.3784 0.976194 12.4458 1.00054 12.5043C1.02632 12.5666 1.06822 12.6277 1.12659 12.6882L1.12712 12.6885C1.17994 12.7415 1.23651 12.7807 1.29631 12.8056C1.3579 12.8314 1.4288 12.8443 1.50936 12.8443H3.06931C3.30653 12.8443 3.50365 13.0156 3.54394 13.2414C3.58476 13.4126 3.62701 13.571 3.67123 13.7151C3.71975 13.873 3.77453 14.0317 3.83666 14.1908C3.89503 14.3425 3.96127 14.5 4.03503 14.6633C4.11041 14.8303 4.18417 14.9825 4.25578 15.1202C4.35551 15.3111 4.31415 15.5384 4.16877 15.6829L4.16913 15.6833L2.95598 16.8928L2.94828 16.9004H2.94846C2.89296 16.953 2.85232 17.0081 2.82725 17.0658C2.8029 17.1213 2.79073 17.1872 2.79073 17.2638C2.79073 17.3399 2.80362 17.4078 2.82904 17.4676C2.85697 17.5331 2.90066 17.5959 2.95974 17.6559L4.44735 19.1607C4.50554 19.2146 4.56623 19.254 4.62979 19.2789C4.69353 19.3041 4.76586 19.3165 4.84678 19.3165C4.92842 19.3165 5.00201 19.3038 5.06682 19.2781C5.12912 19.2536 5.18767 19.216 5.24192 19.1652L6.3446 18.0449C6.51093 17.8759 6.77143 17.8557 6.96013 17.986C7.09065 18.0702 7.2294 18.1513 7.37514 18.2299C7.53018 18.3139 7.68165 18.3891 7.83025 18.4569C7.98458 18.5278 8.14249 18.5942 8.30308 18.6565C8.44846 18.7129 8.61049 18.7706 8.78756 18.8289C8.99022 18.8957 9.11877 19.0843 9.11877 19.2866H9.11895V20.9906C9.11895 21.0723 9.13166 21.1444 9.15727 21.2073C9.18269 21.2694 9.22136 21.3265 9.27382 21.379L9.27471 21.38L9.27561 21.379C9.3807 21.4841 9.50961 21.5358 9.66394 21.5358H11.8024C11.8783 21.5358 11.9454 21.5238 12.0041 21.4995C12.0664 21.4737 12.1275 21.4318 12.1876 21.3734L12.1884 21.3729C12.2412 21.3199 12.2804 21.2635 12.3054 21.2037C12.3314 21.1421 12.3443 21.0714 12.3443 20.9908V19.4305C12.3443 19.1935 12.5153 18.9962 12.7412 18.9561C12.9122 18.9152 13.0706 18.8728 13.2149 18.8288C13.3727 18.7802 13.5315 18.7255 13.6905 18.6635C13.8423 18.605 14 18.5387 14.1637 18.465C14.3302 18.3896 14.4825 18.316 14.6197 18.2444C14.8109 18.1447 15.0383 18.1862 15.1827 18.3314L15.1831 18.331L16.3927 19.544L16.4 19.5517V19.5515C16.4532 19.6074 16.5083 19.6479 16.5658 19.6729C16.622 19.6971 16.6899 19.7094 16.7708 19.7094C16.8501 19.7094 16.919 19.6966 16.9785 19.671C17.0383 19.645 17.094 19.6051 17.1446 19.5515C17.1502 19.5455 17.1561 19.5395 17.1625 19.5336L18.6609 18.0526C18.7144 17.9946 18.754 17.9338 18.7787 17.8702C18.8039 17.8065 18.8165 17.734 18.8165 17.653C18.8165 17.5714 18.8039 17.4978 18.7783 17.433C18.7534 17.3707 18.716 17.3123 18.665 17.2581L17.5449 16.1552C17.3758 15.9889 17.3557 15.7286 17.4859 15.5397C17.5702 15.4092 17.6513 15.2704 17.7299 15.1249C17.8139 14.97 17.8891 14.8183 17.9569 14.6697C18.0276 14.5154 18.0941 14.3575 18.1565 14.1969C18.2128 14.0515 18.2706 13.8893 18.3289 13.7123C18.3957 13.5096 18.5843 13.381 18.7867 13.381V13.3809H20.4905C20.5723 13.3809 20.6446 13.3682 20.7073 13.3426C20.7692 13.3171 20.8265 13.2785 20.879 13.2262L20.8808 13.2242C20.9332 13.1716 20.9724 13.1145 20.9975 13.0523C21.0231 12.9897 21.0356 12.9175 21.0356 12.8357V10.6969C21.0356 10.6214 21.0238 10.5541 20.9993 10.4953C20.9737 10.4332 20.9318 10.372 20.8734 10.3115L20.8727 10.3109C20.8199 10.2579 20.7633 10.2189 20.7035 10.1938C20.6423 10.1681 20.5714 10.1552 20.4906 10.1552H18.9307C18.6904 10.1552 18.4915 9.97989 18.4548 9.75019C18.417 9.59926 18.3744 9.44618 18.3261 9.29078C18.2795 9.14164 18.2251 8.98391 18.1614 8.81723C18.1581 8.80917 18.1555 8.80093 18.153 8.7927C18.0924 8.63425 18.0305 8.48529 17.9669 8.34582C17.898 8.1949 17.825 8.04898 17.7476 7.9079C17.6441 7.71758 17.6826 7.48806 17.8269 7.34125V7.34107L19.0399 6.11037C19.0437 6.10661 19.0472 6.10285 19.0512 6.09909C19.1069 6.04664 19.1473 5.99149 19.1726 5.93384C19.1967 5.87834 19.2093 5.81264 19.2093 5.73601C19.2093 5.65992 19.1964 5.59188 19.1708 5.53209C19.1428 5.46656 19.0992 5.4039 19.0401 5.34374L19.0397 5.34338L17.5432 3.8504L17.5414 3.84879ZM17.7315 2.83526C17.9109 2.91099 18.0738 3.02182 18.2206 3.16863L18.221 3.16881L19.7215 4.66591L19.7253 4.66967C19.8697 4.81648 19.9802 4.97815 20.0558 5.15539C20.1338 5.33819 20.1732 5.53173 20.1732 5.73601C20.1732 5.94333 20.1329 6.13705 20.0536 6.31806C19.9763 6.49566 19.8633 6.65357 19.7172 6.79304L18.7563 7.76789C18.7846 7.8268 18.8129 7.88642 18.8403 7.94675C18.9173 8.11469 18.9878 8.28298 19.0519 8.45145C19.0555 8.45897 19.0585 8.46667 19.0614 8.47455C19.1253 8.64231 19.1865 8.82063 19.2449 9.00826C19.2637 9.06877 19.282 9.12965 19.2995 9.19105H20.4905C20.6974 9.19105 20.8911 9.22901 21.0727 9.30492C21.251 9.37958 21.4121 9.48969 21.5559 9.63453L21.5661 9.64473C21.7077 9.79118 21.8151 9.95268 21.8882 10.1299C21.963 10.3102 22.0001 10.4991 22.0001 10.6969V12.8355C22.0001 13.0412 21.9637 13.2339 21.8903 13.4138C21.8169 13.5934 21.7075 13.7565 21.5613 13.9031L21.5606 13.9037L21.5595 13.9049L21.5588 13.9056C21.412 14.0519 21.249 14.1616 21.0689 14.235C20.8888 14.3083 20.6962 14.3448 20.4906 14.3448H19.1283C19.1045 14.4089 19.0798 14.4751 19.0531 14.5428C18.9849 14.7181 18.9112 14.8934 18.8311 15.0685C18.7482 15.2495 18.6639 15.4204 18.578 15.58C18.5497 15.6322 18.5207 15.6843 18.491 15.7364L19.3414 16.5736C19.3477 16.5795 19.3536 16.5854 19.36 16.5919C19.4995 16.7394 19.6044 16.9032 19.6751 17.0823C19.746 17.262 19.7811 17.4525 19.7811 17.6527C19.7811 17.8521 19.7462 18.041 19.6758 18.22C19.6055 18.3985 19.5016 18.5616 19.3636 18.7095V18.7093C19.3588 18.7144 19.3538 18.7197 19.3486 18.7247L17.8393 20.2167C17.6977 20.3651 17.5381 20.4786 17.3591 20.5556C17.1783 20.6336 16.9828 20.6732 16.7713 20.6732C16.5644 20.6732 16.3692 20.6327 16.1859 20.5538C16.0043 20.4752 15.8439 20.3615 15.7041 20.214L14.7473 19.2547C14.6834 19.2855 14.6207 19.3147 14.5599 19.3422C14.3969 19.4156 14.2227 19.4882 14.0378 19.5596C13.864 19.6273 13.6826 19.6898 13.4944 19.7474C13.4318 19.7666 13.37 19.7848 13.3091 19.8022V20.9906C13.3091 21.1974 13.271 21.3913 13.1951 21.5727C13.1202 21.7512 13.0105 21.9121 12.8653 22.0561L12.8551 22.0665C12.7086 22.2077 12.547 22.315 12.3701 22.3884C12.1896 22.463 12.0007 22.5001 11.8029 22.5001H9.66412C9.24356 22.5001 8.88835 22.3551 8.59402 22.0607L8.59491 22.0598C8.4481 21.9128 8.33799 21.7494 8.26459 21.5691C8.19118 21.389 8.15466 21.1965 8.15466 20.9908V19.6285C8.09039 19.6047 8.02432 19.5798 7.95647 19.5533C7.78137 19.4851 7.60609 19.4114 7.431 19.3311C7.24999 19.2484 7.07901 19.1639 6.91931 19.0778C6.86721 19.0497 6.81511 19.0207 6.76301 18.991L5.92584 19.8414C5.91993 19.8477 5.91384 19.8538 5.90758 19.8598C5.76005 19.9997 5.59623 20.1046 5.41719 20.1751C5.23744 20.246 5.04695 20.2813 4.84678 20.2813C4.64734 20.2813 4.45827 20.2464 4.27942 20.1758C4.10092 20.1055 3.93799 20.0016 3.78993 19.8638L3.79011 19.8634C3.78492 19.8588 3.77973 19.8538 3.77489 19.8486L2.27439 18.3307C2.13008 18.1839 2.01962 18.022 1.94407 17.8448C1.86618 17.6618 1.82662 17.4684 1.82662 17.2643C1.82662 17.057 1.8669 16.8633 1.94603 16.6821C2.02427 16.5033 2.13778 16.3445 2.28567 16.2041L3.24512 15.2473C3.21433 15.1834 3.18497 15.1207 3.1574 15.0593C3.08381 14.8966 3.01148 14.7227 2.94022 14.538C2.87255 14.3641 2.80989 14.1828 2.75224 13.9944C2.73308 13.9316 2.71482 13.87 2.69745 13.8091H1.50936C1.3024 13.8091 1.1085 13.771 0.927317 13.6951C0.748639 13.6204 0.587685 13.5105 0.443919 13.3655L0.433535 13.3547C0.292096 13.2085 0.184853 13.0468 0.111627 12.8697C0.036969 12.6892 -9.15527e-05 12.5004 -9.15527e-05 12.3029V10.1641C-9.15527e-05 9.95841 0.0364319 9.76576 0.109837 9.58583C0.183242 9.4059 0.292633 9.2428 0.439085 9.09617L0.439264 9.09599L0.440338 9.09509L0.441233 9.0942C0.588043 8.94774 0.750966 8.83817 0.931077 8.76477C1.11101 8.69136 1.30365 8.65502 1.50936 8.65502H2.87165C2.89529 8.59074 2.92035 8.52468 2.94685 8.45683C3.01488 8.28173 3.08882 8.10645 3.16903 7.93118C3.25175 7.75017 3.33607 7.57919 3.42237 7.41967C3.45102 7.36649 3.48074 7.31332 3.51117 7.26015L2.6731 6.41939L2.67274 6.41921C2.52468 6.27366 2.4126 6.10984 2.33616 5.92883C2.25792 5.74407 2.21924 5.54963 2.21924 5.34714C2.21924 5.14501 2.25774 4.95237 2.33544 4.7685C2.41242 4.58642 2.52343 4.4226 2.66898 4.27704L2.66988 4.27794L4.16591 2.77833L4.16967 2.77457C4.31648 2.63026 4.47815 2.5198 4.65539 2.44424C4.83837 2.36636 5.03173 2.32662 5.23601 2.32662C5.44315 2.32662 5.63687 2.3669 5.81806 2.44603C5.99566 2.52356 6.15357 2.63635 6.29304 2.78262L7.26718 3.74262C7.32572 3.71361 7.38409 3.68586 7.44228 3.65901C7.59213 3.5899 7.75756 3.52025 7.93856 3.45007C7.94626 3.44649 7.95414 3.44327 7.96202 3.44022C8.13586 3.37255 8.31741 3.30989 8.50575 3.25224C8.56841 3.23308 8.63018 3.21482 8.69105 3.19745V2.00919C8.69105 1.8024 8.72919 1.6085 8.8051 1.42732C8.87976 1.24864 8.98987 1.08769 9.13471 0.94374L9.14491 0.933535C9.29136 0.792096 9.45285 0.685032 9.62992 0.611806C9.81039 0.536969 9.99927 0.499908 10.1971 0.499908H12.3355C12.5411 0.499908 12.7339 0.536253 12.9138 0.609658C13.0946 0.683421 13.2583 0.793528 13.4058 0.940875C13.5515 1.08697 13.6615 1.25025 13.7352 1.4309C13.8086 1.61083 13.845 1.80347 13.845 2.00901V3.37147C13.9093 3.39529 13.9751 3.42035 14.0432 3.44667C14.2181 3.5147 14.3932 3.58865 14.5685 3.66867C14.7496 3.75139 14.9206 3.83589 15.08 3.92219C15.1335 3.95102 15.1867 3.98056 15.2399 4.01099L16.0804 3.17292L16.0808 3.17274C16.2263 3.02468 16.3903 2.9126 16.571 2.83616C16.7559 2.75792 16.95 2.71924 17.1525 2.71924C17.355 2.71924 17.5476 2.75756 17.7315 2.83526ZM10.9999 6.82813C11.3188 6.82813 11.6299 6.85857 11.9334 6.91908C12.2317 6.9787 12.5274 7.07019 12.8202 7.19372L12.8234 7.19516L12.8241 7.19372C13.1036 7.31439 13.3686 7.45852 13.6192 7.62646C13.8675 7.79278 14.0976 7.98059 14.3085 8.18953L14.3103 8.19149C14.5194 8.40258 14.7072 8.63246 14.8735 8.88096C15.0415 9.13161 15.1854 9.39659 15.3061 9.67606C15.3116 9.68931 15.3167 9.70256 15.3211 9.71599C15.4368 9.9969 15.5236 10.2803 15.5806 10.5666C15.6414 10.8702 15.6715 11.1812 15.6715 11.4999C15.6715 11.8188 15.6414 12.1299 15.5806 12.4334C15.5211 12.7319 15.4295 13.0273 15.3061 13.3202L15.3047 13.3234L15.3061 13.3241C15.1854 13.6036 15.0413 13.8684 14.8735 14.119C14.707 14.3675 14.5192 14.5974 14.3103 14.8085L14.3085 14.8105C14.0972 15.0196 13.8675 15.2074 13.6189 15.3737C13.3686 15.5417 13.1034 15.6856 12.8241 15.8063C12.8109 15.8118 12.7976 15.817 12.7838 15.8213C12.5031 15.9371 12.2195 16.0238 11.9334 16.0809C11.6299 16.1416 11.3186 16.1719 10.9999 16.1719C10.681 16.1719 10.3701 16.1416 10.0666 16.0809C9.76814 16.0213 9.47255 15.9296 9.17965 15.8063L9.17642 15.8048L9.17589 15.8063C8.89641 15.6856 8.63126 15.5415 8.38078 15.3737C8.13228 15.2074 7.9024 15.0196 7.69149 14.8105L7.6897 14.8085C7.48059 14.5972 7.2926 14.3675 7.12646 14.1189C6.9587 13.8684 6.81457 13.6032 6.69408 13.3241C6.68835 13.3109 6.68334 13.2976 6.67886 13.284C6.56303 13.0031 6.47637 12.7197 6.41926 12.4334C6.35875 12.1299 6.32831 11.8188 6.32831 11.4999C6.32831 11.181 6.35857 10.8701 6.41926 10.5666C6.47888 10.2681 6.57055 9.97255 6.69408 9.67982L6.69533 9.6766L6.69408 9.67606C6.81457 9.39659 6.95888 9.13161 7.12646 8.88114C7.29278 8.63246 7.48059 8.40276 7.6897 8.19149L7.69167 8.1897C7.90258 7.98077 8.13246 7.79296 8.38078 7.62663C8.63144 7.45888 8.89659 7.31457 9.17606 7.1939C9.18931 7.18817 9.20256 7.18316 9.21617 7.17886C9.49708 7.06303 9.78031 6.97655 10.0666 6.91944C10.3701 6.85857 10.681 6.82813 10.9999 6.82813ZM11.7451 7.86439C11.5044 7.81623 11.2563 7.79224 10.9999 7.79224C10.7437 7.79224 10.4956 7.81623 10.2548 7.86439C10.0209 7.91112 9.79768 7.97808 9.58498 8.06527C9.57567 8.06993 9.56618 8.07458 9.55634 8.0787C9.32395 8.17914 9.11018 8.29444 8.91539 8.42478C8.71916 8.55601 8.53762 8.70461 8.3704 8.87004C8.20479 9.03744 8.05619 9.21934 7.92478 9.41575C7.79444 9.61036 7.67914 9.82395 7.57888 10.0563L7.57763 10.0558C7.48435 10.2773 7.41345 10.5104 7.36439 10.7549C7.31641 10.9956 7.29242 11.2437 7.29242 11.4999C7.29242 11.7561 7.31641 12.0043 7.36439 12.2451C7.41112 12.4789 7.47826 12.7021 7.56545 12.9148C7.57011 12.9243 7.57476 12.9336 7.57888 12.9435C7.67914 13.1759 7.79444 13.3893 7.9246 13.5839C8.05601 13.7803 8.20461 13.9622 8.3704 14.1296C8.53762 14.2952 8.71934 14.4436 8.91557 14.5749C9.11018 14.7052 9.32377 14.8205 9.55634 14.9209L9.5558 14.9222C9.77745 15.0155 10.0104 15.0865 10.2549 15.1352C10.4956 15.1834 10.7439 15.2072 11.0001 15.2072C11.2563 15.2072 11.5046 15.1832 11.7452 15.1352C11.9792 15.0885 12.2023 15.0216 12.4152 14.9344C12.4243 14.9297 12.434 14.9251 12.4438 14.9209C12.676 14.8205 12.8896 14.7052 13.0844 14.5749C13.2807 14.4436 13.4624 14.295 13.6296 14.1296C13.7954 13.9622 13.944 13.7805 14.0754 13.5841C14.2056 13.3895 14.3209 13.1759 14.4209 12.9435L14.4224 12.944C14.5156 12.7225 14.5867 12.4894 14.6356 12.2451C14.6836 12.0043 14.7076 11.7561 14.7076 11.4999C14.7076 11.2437 14.6834 10.9956 14.6356 10.7549C14.5887 10.5209 14.5219 10.2979 14.4345 10.085C14.4297 10.0757 14.4254 10.0662 14.4209 10.0563C14.3209 9.82395 14.2056 9.61036 14.075 9.41575C13.944 9.21934 13.7952 9.03744 13.6296 8.87022C13.4624 8.70479 13.2807 8.55619 13.0844 8.42496C12.8896 8.29462 12.676 8.17932 12.4438 8.07888L12.4442 8.07763C12.2227 7.98435 11.9898 7.91327 11.7451 7.86439Z" fill="black"/>
</svg>
