<svg width="32" height="32" viewBox="0 0 32 32" fill="none" xmlns="http://www.w3.org/2000/svg">
<path d="M8.95521 17.7042C8.88073 17.624 8.81406 17.538 8.75677 17.4487C8.69922 17.3589 8.64896 17.2628 8.60755 17.163C8.46927 16.8336 8.43177 16.4779 8.4901 16.1385C8.54844 15.8016 8.70156 15.4794 8.94427 15.2146L9.03281 15.1234C9.62995 14.5544 10.5357 14.4484 11.2461 14.8758C11.3477 14.9365 11.4445 15.0086 11.5349 15.0911L11.5438 15.0992C12.0466 15.5815 12.8974 16.3703 13.456 16.8675L13.9354 17.2974L19.8031 11.1424C19.8857 11.0573 19.9766 10.981 20.0727 10.9143C20.1711 10.8464 20.2745 10.7888 20.3813 10.7422C20.4891 10.6951 20.6031 10.6581 20.7198 10.6326C20.8362 10.6068 20.9549 10.5922 21.0729 10.5896H21.0797C21.1971 10.5883 21.3122 10.5966 21.4289 10.6164C21.5427 10.6357 21.657 10.6667 21.776 10.7125C21.8857 10.7544 21.9909 10.807 22.0904 10.8698C22.1854 10.9299 22.2781 11.0016 22.3654 11.0839L22.4076 11.1221C22.4898 11.2036 22.5641 11.2922 22.6289 11.3862C22.6956 11.4823 22.7526 11.5857 22.7987 11.693C22.8464 11.8008 22.8833 11.9148 22.9091 12.0313C22.9352 12.1456 22.9492 12.2643 22.9521 12.3854V12.4453C22.951 12.5492 22.9411 12.6547 22.9224 12.7589C22.9018 12.8721 22.8708 12.9836 22.8297 13.0898C22.788 13.1987 22.7346 13.3047 22.6716 13.4049C22.6096 13.5031 22.5367 13.5974 22.4549 13.6836L15.3667 21.1211C15.2833 21.2102 15.194 21.2883 15.1005 21.3549C15.0044 21.4237 14.9008 21.4828 14.7924 21.5323C14.6839 21.5813 14.5708 21.6201 14.457 21.6469C14.3438 21.674 14.2255 21.6901 14.1055 21.6956L14.0729 21.6964C13.9628 21.6987 13.8542 21.6922 13.7497 21.676L13.7232 21.6708C13.6151 21.6526 13.5099 21.6255 13.4094 21.5901C13.2997 21.551 13.1924 21.5008 13.0901 21.4404L13.0737 21.4299C12.9771 21.3716 12.887 21.3057 12.8049 21.2336L12.7885 21.218C12.3771 20.8362 11.9299 20.4477 11.4779 20.055C10.6948 19.3745 9.60859 18.393 8.95755 17.706L8.95521 17.7042ZM16 0C20.4167 0 24.4188 1.79245 27.3159 4.68411C30.2076 7.58125 31.9997 11.5833 31.9997 16C31.9997 20.4169 30.2073 24.419 27.3159 27.3161C24.419 30.2078 20.4167 32 16 32C11.5831 32 7.58099 30.2078 4.68385 27.3161C1.79219 24.419 0 20.4167 0 15.9997C0 11.5833 1.79219 7.58125 4.68385 4.68411C7.58125 1.79245 11.5831 0 16 0ZM25.2341 6.76589C22.8714 4.40286 19.6068 2.94167 16 2.94167C12.393 2.94167 9.12839 4.40286 6.76563 6.76589C4.40286 9.12865 2.94167 12.3932 2.94167 15.9997C2.94167 19.6068 4.40286 22.8714 6.76563 25.2341C9.12839 27.5969 12.393 29.0583 16 29.0583C19.6068 29.0583 22.8714 27.5971 25.2341 25.2341C27.5969 22.8711 29.0581 19.6068 29.0581 15.9997C29.0581 12.3932 27.5971 9.12865 25.2341 6.76589Z" fill="#7ED957"/>
</svg>
